<svg width="24" height="24" viewBox="0 0 24 24" fill="none" xmlns="http://www.w3.org/2000/svg">
<mask id="mask0" mask-type="alpha" maskUnits="userSpaceOnUse" x="0" y="0" width="24" height="24">
<rect width="24" height="24" fill="#C4C4C4"/>
</mask>
<g mask="url(#mask0)">
<path d="M22.4903 16.537C22.9128 16.3832 23.2281 16.1105 23.439 15.7218L16.1764 12.335C16.0819 12.473 15.9905 12.607 15.9043 12.7342C15.6127 13.1728 15.3726 13.5196 15.1841 13.7741C14.9956 14.029 14.7263 14.317 14.3762 14.6383C14.026 14.9599 13.6726 15.1853 13.316 15.3151L13.3056 15.3189L13.2951 15.3227C12.9384 15.4525 12.5229 15.507 12.0479 15.4858C11.5729 15.4647 11.1815 15.4173 10.8736 15.343C10.5655 15.2692 10.1589 15.1578 9.65339 15.0093C9.51265 14.9683 9.35691 14.9238 9.18889 14.8766L5.80187 22.1412C6.21327 22.3034 6.63033 22.3096 7.05275 22.1558L22.4903 16.537Z" fill="#A0A3A5"/>
<path d="M3.12441 13.2886C2.62929 13.168 2.16524 12.9924 1.73291 12.7616L4.68152 20.8629L7.66645 14.4617C6.489 14.1479 4.97687 13.7573 3.12441 13.2886Z" fill="#A0A3A5"/>
<path d="M19.8105 7.21547C18.7339 8.70225 17.8228 9.9765 17.0771 11.0387L23.4758 14.0227L20.5271 5.92122C20.3486 6.36648 20.1097 6.79772 19.8105 7.21547Z" fill="#A0A3A5"/>
<path d="M17.1155 1.7704L1.67791 7.38921C1.13934 7.58523 0.791475 7.9178 0.633662 8.38673C0.475671 8.85592 0.496231 9.3633 0.694676 9.90852C0.854969 10.3489 1.22096 10.7561 1.79252 11.1303C2.36401 11.5043 2.92001 11.759 3.46038 11.8949C3.75915 11.9763 4.65718 12.2137 6.1544 12.6068C6.96268 12.8192 7.66591 13.0048 8.27073 13.1656C8.78616 13.3025 9.23105 13.4215 9.59875 13.5208C9.64094 13.5322 9.70755 13.5508 9.79596 13.5754C9.8913 13.6022 10.012 13.6362 10.161 13.6785C10.448 13.7601 10.6851 13.8243 10.8724 13.871C11.0595 13.9179 11.2827 13.9651 11.5419 14.0133C11.8009 14.0614 12.0364 14.0828 12.248 14.077C12.4597 14.0711 12.646 14.039 12.8067 13.9805L12.8172 13.9767L12.8276 13.9729C12.9884 13.9144 13.1517 13.8192 13.3176 13.6877C13.4835 13.5561 13.6501 13.3886 13.8176 13.185C13.985 12.9815 14.1253 12.8017 14.2391 12.6457C14.3525 12.4895 14.4929 12.288 14.6603 12.0409C14.7471 11.9128 14.8176 11.8091 14.8735 11.7275C14.9254 11.6516 14.9645 11.5948 14.9897 11.5587C15.16 11.317 15.4255 10.9406 15.7825 10.4349C16.4321 9.51428 17.389 8.15905 18.6572 6.36366C19.0378 5.82144 19.3077 5.23608 19.4672 4.6081C19.6261 3.98035 19.6054 3.39004 19.4044 2.83768C19.2364 2.3762 18.9264 2.04183 18.4749 1.83371C18.0231 1.62614 17.5699 1.60499 17.1155 1.7704Z" fill="#A0A3A5"/>
</g>
</svg>
