<svg width="48" height="45" viewBox="0 0 48 45" fill="none" xmlns="http://www.w3.org/2000/svg">
<path d="M43.2252 38.6833L41.9356 38.1226L42.4963 36.8332L43.786 37.3937L43.2252 38.6833ZM41.0757 37.749L39.7864 37.1886L40.3465 35.8989L41.6365 36.4594L41.0757 37.749Z" fill="#DE1832"/>
<path d="M35.0654 7.92981C35.0654 5.81487 33.3451 4.09485 31.2305 4.09485C29.1158 4.09485 27.3955 5.81516 27.3955 7.92981C27.3955 10.0442 29.1158 11.7648 31.2305 11.7648C33.3451 11.7648 35.0654 10.0442 35.0654 7.92981ZM28.8018 7.92981C28.8018 6.59036 29.8913 5.5011 31.2305 5.5011C32.5696 5.5011 33.6592 6.59036 33.6592 7.92981C33.6592 9.26897 32.5696 10.3585 31.2305 10.3585C29.8913 10.3585 28.8018 9.26897 28.8018 7.92981Z" fill="#DE1832"/>
<path d="M30.9744 23.463L31.2305 23.8409L31.8129 22.9816C32.1126 22.5387 39.16 12.0888 39.16 7.92978C39.16 3.55723 35.6027 0 31.2305 0C26.8582 0 23.301 3.55723 23.301 7.92978C23.301 11.5178 28.5457 19.7877 30.1787 22.275L24.7031 24.6337V14.7448L14.2723 10.2111L13.7121 11.5011L23.2969 15.6671V24.6299L19.1736 22.8378L17.4727 23.9531V27.8701L17.042 28.1525L13.0547 26.4196V9.0709L0 14.7445V44.6906L13.0547 39.017V27.953L17.1779 29.7451L18.8789 28.6298V24.7128L19.3096 24.4304L23.2969 26.1633V42.5461L14.2723 38.6241L13.7121 39.9138L24.7031 44.6906V26.165L30.9744 23.463ZM31.2305 1.40625C34.8275 1.40625 37.7537 4.33271 37.7537 7.92978C37.7537 10.7558 33.4787 17.8781 31.2305 21.317C28.9822 17.8781 24.7072 10.7558 24.7072 7.92978C24.7072 4.33271 27.6334 1.40625 31.2305 1.40625ZM1.40625 42.5461V15.6665L11.6484 11.2154V26.4196L7.30986 28.3052C6.81768 27.5303 5.95283 27.0146 4.96875 27.0146C3.44004 27.0146 2.19668 28.2583 2.19668 29.787C2.19668 31.3154 3.44004 32.5597 4.96875 32.5597C6.54346 32.5597 7.81377 31.2401 7.7376 29.6528L11.6484 27.953V38.0947L1.40625 42.5461ZM6.33457 29.787C6.33457 30.5402 5.72197 31.1534 4.96875 31.1534C4.21553 31.1534 3.60293 30.5402 3.60293 29.787C3.60293 29.0341 4.21553 28.4209 4.96875 28.4209C5.72197 28.4209 6.33457 29.0341 6.33457 29.787Z" fill="#DE1832"/>
<path d="M34.9454 38.0947L25.3606 42.2605L25.9208 43.5504L36.3516 39.017V18.5889H34.9454V38.0947Z" fill="#DE1832"/>
<path d="M39.4717 11.0382L38.911 12.3276L46.5938 15.6671V42.5461L37.5692 38.6241L37.009 39.9135L48 44.6907V14.7448L39.4717 11.0382Z" fill="#DE1832"/>
</svg>
