<svg width="48" height="48" viewBox="0 0 48 48" fill="none" xmlns="http://www.w3.org/2000/svg">
<path d="M47.621 23.3193L42.3071 19.998L47.621 16.6767C47.7362 16.6039 47.8308 16.503 47.896 16.3834C47.9612 16.2638 47.9948 16.1296 47.9936 15.9934C47.9924 15.8572 47.9565 15.7236 47.8892 15.6052C47.8219 15.4868 47.7254 15.3875 47.6091 15.3168L33.8383 7.04954C33.1411 4.99415 31.8175 3.20883 30.0535 1.9444C28.2894 0.67998 26.1736 0 24.0032 0C21.8328 0 19.7169 0.67998 17.9528 1.9444C16.1888 3.20883 14.8652 4.99415 14.168 7.04954L0.389283 15.3128C0.272885 15.3835 0.17647 15.4828 0.10917 15.6012C0.0418712 15.7196 0.00591763 15.8532 0.00471597 15.9894C0.0035143 16.1256 0.0371044 16.2598 0.102304 16.3794C0.167503 16.499 0.262152 16.5999 0.377284 16.6727L5.69121 19.998L0.377284 23.3193C0.259861 23.3924 0.163389 23.4946 0.0972852 23.6161C0.0311816 23.7376 -0.00229529 23.8741 0.000122243 24.0124C0.00253978 24.1507 0.0407691 24.286 0.111079 24.4051C0.181388 24.5242 0.281376 24.623 0.401282 24.692L6.40074 28.1189V37.5964C6.40047 37.7371 6.4373 37.8754 6.50752 37.9973C6.57774 38.1192 6.67887 38.2204 6.80071 38.2907L23.5992 47.8899C23.72 47.9589 23.8568 47.9952 23.996 47.9952C24.1351 47.9952 24.2719 47.9589 24.3927 47.8899L41.1912 38.2907C41.3143 38.2212 41.4167 38.1203 41.488 37.9984C41.5594 37.8764 41.5972 37.7377 41.5976 37.5964V28.1189L47.5971 24.692C47.7171 24.6233 47.8174 24.5247 47.888 24.4058C47.9586 24.2868 47.9971 24.1516 47.9998 24.0133C48.0026 23.875 47.9694 23.7384 47.9036 23.6168C47.8378 23.4951 47.7415 23.3926 47.6243 23.3193H47.621ZM32.452 16.1527L39.185 19.998L23.9992 28.6756L8.81333 19.998L15.5463 16.1527C17.8073 19.9937 20.4391 23.6039 23.404 26.9318C23.479 27.0153 23.5708 27.0821 23.6733 27.1278C23.7759 27.1736 23.8869 27.1972 23.9992 27.1972C24.1114 27.1972 24.2225 27.1736 24.325 27.1278C24.4275 27.0821 24.5193 27.0153 24.5943 26.9318C27.5592 23.6039 30.191 19.9937 32.452 16.1527ZM45.6652 16.0127L40.7793 19.0661L33.1799 14.7257C33.8837 13.3843 34.2987 11.9104 34.3982 10.3988C34.3964 10.0013 34.3718 9.60412 34.3246 9.20935L45.6652 16.0127ZM23.9992 1.59963C26.332 1.60238 28.5685 2.53032 30.2181 4.1799C31.8677 5.82947 32.7956 8.06599 32.7984 10.3988C32.7984 14.2121 26.9181 21.8066 23.9992 25.1855C21.0802 21.8074 15.2 14.2145 15.2 10.3988C15.2027 8.06599 16.1306 5.82947 17.7802 4.1799C19.4298 2.53032 21.6663 1.60238 23.9992 1.59963ZM13.6737 9.20935C13.6265 9.60412 13.6019 10.0013 13.6001 10.3988C13.6999 11.9104 14.1152 13.3843 14.8192 14.7257L7.21987 19.0661L2.33311 16.0127L13.6737 9.20935ZM7.21907 20.9299L22.4409 29.6275L17.5813 32.6672L2.35951 23.9672L7.21907 20.9299ZM8.0006 29.0324L17.1998 34.2911C17.3253 34.3628 17.4678 34.3992 17.6123 34.3964C17.7569 34.3936 17.8979 34.3517 18.0205 34.2751L23.1992 31.037V45.8173L8.0006 37.1324V29.0324ZM39.9977 37.1324L24.7991 45.8173V31.037L29.9746 34.2719C30.0972 34.3485 30.2383 34.3904 30.3828 34.3932C30.5273 34.396 30.6699 34.3596 30.7954 34.2879L39.9977 29.0324V37.1324ZM30.417 32.6648L25.5574 29.6251L40.7793 20.9299L45.6388 23.9696L30.417 32.6648Z" fill="#DE1832"/>
<path d="M29.2292 40.0858L26.7879 41.4809C26.6966 41.533 26.6165 41.6026 26.5522 41.6857C26.4879 41.7688 26.4406 41.8638 26.4129 41.9652C26.3853 42.0666 26.3779 42.1724 26.3912 42.2767C26.4044 42.3809 26.4381 42.4815 26.4903 42.5728C26.5424 42.664 26.6121 42.7441 26.6952 42.8084C26.7783 42.8727 26.8732 42.9201 26.9746 42.9477C27.076 42.9753 27.1818 42.9827 27.2861 42.9694C27.3903 42.9562 27.4909 42.9225 27.5822 42.8703L30.0228 41.4753C30.114 41.4232 30.1941 41.3536 30.2584 41.2705C30.3228 41.1875 30.3701 41.0926 30.3978 40.9912C30.4255 40.8899 30.4329 40.7841 30.4197 40.6798C30.4065 40.5756 30.3728 40.475 30.3207 40.3838C30.2686 40.2925 30.1991 40.2124 30.116 40.1481C30.033 40.0837 29.9381 40.0364 29.8367 40.0087C29.7353 39.981 29.6295 39.9736 29.5253 39.9868C29.4211 40.0001 29.3205 40.0337 29.2292 40.0858Z" fill="#DE1832"/>
<path d="M31.9761 40.2361C32.115 40.2364 32.2516 40.1999 32.372 40.1305L33.2831 39.6098C33.3744 39.5577 33.4545 39.4881 33.5188 39.4051C33.5832 39.322 33.6305 39.2271 33.6582 39.1257C33.6859 39.0244 33.6933 38.9186 33.6801 38.8143C33.6669 38.7101 33.6332 38.6095 33.5811 38.5183C33.529 38.427 33.4595 38.347 33.3764 38.2826C33.2934 38.2183 33.1984 38.1709 33.0971 38.1432C32.9957 38.1156 32.8899 38.1081 32.7857 38.1214C32.6815 38.1346 32.5809 38.1682 32.4896 38.2203L31.5785 38.7419C31.4252 38.8295 31.3053 38.9655 31.2373 39.1285C31.1694 39.2915 31.1573 39.4724 31.203 39.643C31.2486 39.8136 31.3495 39.9643 31.4898 40.0716C31.63 40.1789 31.8019 40.2367 31.9785 40.2361H31.9761Z" fill="#DE1832"/>
<path d="M29.2292 36.8861L26.7879 38.2811C26.6966 38.3333 26.6165 38.4029 26.5522 38.486C26.4879 38.5691 26.4406 38.6641 26.4129 38.7655C26.3853 38.8669 26.3779 38.9727 26.3912 39.077C26.4044 39.1812 26.4381 39.2818 26.4903 39.3731C26.5424 39.4643 26.6121 39.5444 26.6952 39.6087C26.7783 39.673 26.8732 39.7203 26.9746 39.748C27.076 39.7756 27.1818 39.783 27.2861 39.7697C27.3903 39.7565 27.4909 39.7228 27.5822 39.6706L30.0228 38.2756C30.114 38.2234 30.1941 38.1539 30.2584 38.0708C30.3228 37.9878 30.3701 37.8929 30.3978 37.7915C30.4255 37.6902 30.4329 37.5843 30.4197 37.4801C30.4065 37.3759 30.3728 37.2753 30.3207 37.184C30.2686 37.0928 30.1991 37.0127 30.116 36.9484C30.033 36.884 29.9381 36.8367 29.8367 36.809C29.7353 36.7813 29.6295 36.7739 29.5253 36.7871C29.4211 36.8003 29.3205 36.834 29.2292 36.8861Z" fill="#DE1832"/>
<path d="M31.9761 37.0364C32.115 37.0366 32.2516 37.0002 32.372 36.9308L33.2831 36.4101C33.4674 36.3048 33.6023 36.1307 33.6582 35.926C33.7141 35.7213 33.6864 35.5028 33.5811 35.3186C33.4759 35.1343 33.3018 34.9994 33.0971 34.9435C32.8924 34.8876 32.6739 34.9154 32.4896 35.0206L31.5785 35.5422C31.4252 35.6298 31.3053 35.7658 31.2373 35.9288C31.1694 36.0918 31.1573 36.2727 31.203 36.4433C31.2486 36.6139 31.3495 36.7646 31.4898 36.8719C31.63 36.9792 31.8019 37.037 31.9785 37.0364H31.9761Z" fill="#DE1832"/>
<path d="M23.9992 13.5985C24.7902 13.5985 25.5635 13.364 26.2212 12.9245C26.879 12.485 27.3916 11.8603 27.6943 11.1295C27.9971 10.3986 28.0763 9.59445 27.9219 8.8186C27.7676 8.04274 27.3867 7.33007 26.8273 6.77071C26.268 6.21135 25.5553 5.83042 24.7794 5.6761C24.0036 5.52177 23.1994 5.60098 22.4686 5.9037C21.7377 6.20642 21.1131 6.71907 20.6736 7.37681C20.2341 8.03454 19.9995 8.80783 19.9995 9.59889C20.0008 10.6593 20.4226 11.6759 21.1724 12.4257C21.9222 13.1755 22.9388 13.5973 23.9992 13.5985ZM23.9992 7.1991C24.4738 7.1991 24.9378 7.33985 25.3324 7.60354C25.727 7.86723 26.0346 8.24203 26.2163 8.68053C26.3979 9.11903 26.4454 9.60155 26.3528 10.0671C26.2602 10.5326 26.0317 10.9602 25.6961 11.2958C25.3604 11.6314 24.9328 11.86 24.4673 11.9526C24.0018 12.0452 23.5193 11.9976 23.0808 11.816C22.6423 11.6344 22.2675 11.3268 22.0038 10.9321C21.7401 10.5375 21.5994 10.0735 21.5994 9.59889C21.5994 8.96242 21.8522 8.35203 22.3022 7.90198C22.7523 7.45194 23.3627 7.1991 23.9992 7.1991Z" fill="#DE1832"/>
</svg>
