<svg width="48" height="49" viewBox="0 0 48 49" fill="none" xmlns="http://www.w3.org/2000/svg">
<path d="M47.8558 17.0641C47.6662 16.6115 47.3115 16.2598 46.8575 16.0742L43.6503 14.7619C43.1966 14.5763 42.697 14.5781 42.2444 14.7681C41.7915 14.9581 41.4401 15.3128 41.2541 15.7665L37.6032 24.6899V10.1081C37.6032 9.91888 37.528 9.73695 37.3941 9.60308L27.9997 0.209065C27.8659 0.0751902 27.6843 0 27.4951 0H0.714124C0.319834 0 0 0.319834 0 0.714124V6.22428C0 6.61857 0.319834 6.93841 0.714124 6.93841C1.10841 6.93841 1.42788 6.61857 1.42788 6.22428V1.42788H26.7806V10.1081C26.7806 10.5024 27.1004 10.8219 27.4947 10.8219H36.1753V28.1802L33.0276 35.8727C32.988 35.9695 32.97 36.0741 32.9755 36.1786L33.3115 42.8991C33.3254 43.1757 33.4978 43.4192 33.7542 43.5241C33.8415 43.5601 33.9332 43.5773 34.0245 43.5773C34.2006 43.5773 34.3737 43.5124 34.5079 43.3888L36.1749 41.8542V46.6469H1.42788V9.08041C1.42788 8.68612 1.10841 8.36629 0.714124 8.36629C0.319834 8.36629 0 8.68612 0 9.08041V47.3607C0 47.755 0.319834 48.0748 0.714124 48.0748H36.8891C37.2834 48.0748 37.6032 47.755 37.6032 47.3607V40.5396L39.4587 38.8315C39.5358 38.7604 39.5959 38.6735 39.6359 38.5766L42.8727 30.6651C43.022 30.3002 42.8471 29.8832 42.4821 29.7339C42.1175 29.5846 41.7005 29.7592 41.5512 30.1241L38.5843 37.375L34.6194 35.7528L40.712 20.8625L44.6769 22.4848L42.5749 27.6223C42.4256 27.9873 42.6002 28.4043 42.9655 28.5536C43.3305 28.7029 43.7471 28.5283 43.8964 28.1633L47.8624 18.4704C48.048 18.0163 48.0458 17.5168 47.8558 17.0641ZM28.2088 2.43726L35.1656 9.39438H28.2088V2.43726ZM34.4577 37.2291L37.6652 38.5414L34.6616 41.3066L34.4577 37.2291ZM46.5406 17.9294L45.2176 21.1629L41.2527 19.5407L42.5756 16.3071C42.6171 16.2062 42.6956 16.1274 42.7964 16.0852C42.8977 16.0427 43.0088 16.0419 43.1097 16.0834L46.3168 17.3957C46.4177 17.4368 46.4965 17.5153 46.5387 17.6162C46.5813 17.7174 46.582 17.8285 46.5406 17.9294Z" fill="#DE1832"/>
<path d="M23.7605 7.7948H14.9075C14.5132 7.7948 14.1934 8.11427 14.1934 8.50856C14.1934 8.90285 14.5132 9.22268 14.9075 9.22268H23.7605C24.1548 9.22268 24.4746 8.90285 24.4746 8.50856C24.4746 8.11427 24.1548 7.7948 23.7605 7.7948Z" fill="#DE1832"/>
<path d="M5.52199 23.4542H11.1668C11.561 23.4542 11.8805 23.1344 11.8805 22.7401V17.6837L12.946 16.3273C13.1896 16.0174 13.1356 15.5684 12.8257 15.3249C12.5158 15.0813 12.0668 15.1353 11.8233 15.4452L11.0875 16.3816H5.52199C5.12769 16.3816 4.80786 16.701 4.80786 17.0953V22.7401C4.80786 23.1344 5.12769 23.4542 5.52199 23.4542ZM6.23574 17.8095H9.96555L8.82926 19.2557L8.03481 18.4609C7.75605 18.1821 7.30381 18.1821 7.02506 18.4609C6.7463 18.74 6.7463 19.1919 7.02506 19.4706L8.38875 20.8343C8.52299 20.9686 8.70492 21.0434 8.89344 21.0434C8.90775 21.0434 8.92205 21.043 8.93636 21.0423C9.13992 21.0302 9.32881 20.9311 9.45499 20.7705L10.4526 19.5011V22.0264H6.23574V17.8095Z" fill="#DE1832"/>
<path d="M31.3757 17.4904H16.0974C15.7031 17.4904 15.3833 17.8102 15.3833 18.2045C15.3833 18.5988 15.7031 18.9186 16.0974 18.9186H31.3757C31.7704 18.9186 32.0898 18.5988 32.0898 18.2045C32.0898 17.8102 31.7704 17.4904 31.3757 17.4904Z" fill="#DE1832"/>
<path d="M16.0974 22.3455H28.3773C28.7716 22.3455 29.091 22.0256 29.091 21.6314C29.091 21.2371 28.7716 20.9176 28.3773 20.9176H16.0974C15.7031 20.9176 15.3833 21.2371 15.3833 21.6314C15.3833 22.0256 15.7031 22.3455 16.0974 22.3455Z" fill="#DE1832"/>
<path d="M4.80786 32.1165C4.80786 32.5107 5.12769 32.8306 5.52199 32.8306H11.1668C11.561 32.8306 11.8805 32.5107 11.8805 32.1165V27.06L12.946 25.7036C13.1896 25.3937 13.1356 24.9448 12.8257 24.7012C12.5158 24.4577 12.0668 24.5116 11.8233 24.8215L11.0875 25.7579H5.52199C5.12769 25.7579 4.80786 26.0774 4.80786 26.4717V32.1165ZM6.23574 27.1858H9.96555L8.82926 28.632L8.03481 27.8372C7.75605 27.5585 7.30381 27.5585 7.02506 27.8372C6.7463 28.1163 6.7463 28.5682 7.02506 28.847L8.38875 30.2107C8.52299 30.3449 8.70492 30.4197 8.89344 30.4197C8.90775 30.4197 8.92205 30.4194 8.93636 30.4186C9.13992 30.4065 9.32881 30.3075 9.45499 30.1468L10.4526 28.8774V31.4027H6.23574V27.1858Z" fill="#DE1832"/>
<path d="M31.3757 26.8667H16.0974C15.7031 26.8667 15.3833 27.1865 15.3833 27.5808C15.3833 27.9751 15.7031 28.2946 16.0974 28.2946H31.3757C31.7704 28.2946 32.0898 27.9751 32.0898 27.5808C32.0898 27.1865 31.7704 26.8667 31.3757 26.8667Z" fill="#DE1832"/>
<path d="M16.0974 31.7218H20.6668C21.0611 31.7218 21.3805 31.402 21.3805 31.0077C21.3805 30.6134 21.0611 30.2939 20.6668 30.2939H16.0974C15.7031 30.2939 15.3833 30.6134 15.3833 31.0077C15.3833 31.402 15.7031 31.7218 16.0974 31.7218Z" fill="#DE1832"/>
<path d="M4.80786 41.4929C4.80786 41.8872 5.12769 42.207 5.52199 42.207H11.1668C11.561 42.207 11.8805 41.8872 11.8805 41.4929V35.8485C11.8805 35.4542 11.561 35.1344 11.1668 35.1344H5.52199C5.12769 35.1344 4.80786 35.4542 4.80786 35.8485V41.4929ZM6.23574 36.5623H10.4526V40.7788H6.23574V36.5623Z" fill="#DE1832"/>
<path d="M32.0898 36.9573C32.0898 36.563 31.7704 36.2432 31.3757 36.2432H16.0974C15.7031 36.2432 15.3833 36.563 15.3833 36.9573C15.3833 37.3516 15.7031 37.671 16.0974 37.671H31.3757C31.7704 37.671 32.0898 37.3516 32.0898 36.9573Z" fill="#DE1832"/>
<path d="M16.0974 39.67C15.7031 39.67 15.3833 39.9899 15.3833 40.3842C15.3833 40.7785 15.7031 41.0983 16.0974 41.0983H29.091C29.4857 41.0983 29.8052 40.7785 29.8052 40.3842C29.8052 39.9899 29.4857 39.67 29.091 39.67H16.0974Z" fill="#DE1832"/>
</svg>
