<svg width="48" height="48" viewBox="0 0 48 48" fill="none" xmlns="http://www.w3.org/2000/svg">
<path d="M44 14.4H35.2V10.4C35.2 10.3824 35.191 10.3672 35.1895 10.3496C35.1855 10.2797 35.1719 10.2102 35.1488 10.1441C35.1398 10.1184 35.1336 10.0938 35.1223 10.0688C35.0836 9.98164 35.0293 9.90234 34.9625 9.83438L25.3625 0.234375C25.2941 0.167187 25.2145 0.113281 25.1273 0.0742188C25.1031 0.0640625 25.0801 0.0574219 25.0551 0.0488281C24.9871 0.0253906 24.916 0.0113281 24.8441 0.00703125C24.8313 0.00898438 24.8168 0 24.8 0H4C1.7918 0.00273438 0.00273438 1.7918 0 4V40.8C0.00273438 43.0082 1.7918 44.7973 4 44.8H20.8801C21.2629 46.6613 22.9 47.9977 24.8 48H44C46.2082 47.9973 47.9973 46.2082 48 44V18.4C47.9973 16.1918 46.2082 14.4027 44 14.4ZM32.4688 9.6H26.4C25.9582 9.6 25.6 9.2418 25.6 8.8V2.73125L32.4688 9.6ZM1.6 40.8V4C1.6 2.67461 2.67461 1.6 4 1.6H24V8.8C24 10.1254 25.0746 11.2 26.4 11.2H33.6V14.4H24.8C22.5918 14.4027 20.8027 16.1918 20.8 18.4V43.2H4C2.67461 43.2 1.6 42.1254 1.6 40.8ZM46.4 44C46.4 45.3254 45.3254 46.4 44 46.4H24.8C23.4746 46.4 22.4 45.3254 22.4 44V18.4C22.4 17.0746 23.4746 16 24.8 16H44C45.3254 16 46.4 17.0746 46.4 18.4V44Z" fill="#DE1832"/>
<path d="M40.8 17.6H28C25.7918 17.6027 24.0027 19.3918 24 21.6V24.8C24.0027 27.0082 25.7918 28.7972 28 28.8H40.8C43.0082 28.7972 44.7973 27.0082 44.8 24.8V21.6C44.7973 19.3918 43.0082 17.6027 40.8 17.6ZM43.2 24.8C43.2 26.1254 42.1254 27.2 40.8 27.2H28C26.6746 27.2 25.6 26.1254 25.6 24.8V21.6C25.6 20.2746 26.6746 19.2 28 19.2H40.8C42.1254 19.2 43.2 20.2746 43.2 21.6V24.8Z" fill="#DE1832"/>
<path d="M27.2 30.4C25.4328 30.4 24 31.8328 24 33.6C24 35.3672 25.4328 36.8 27.2 36.8C28.9672 36.8 30.4 35.3672 30.4 33.6C30.4 31.8328 28.9672 30.4 27.2 30.4ZM27.2 35.2C26.3164 35.2 25.6 34.4836 25.6 33.6C25.6 32.7164 26.3164 32 27.2 32C28.0836 32 28.8 32.7164 28.8 33.6C28.8 34.4836 28.0836 35.2 27.2 35.2Z" fill="#DE1832"/>
<path d="M34.4 30.4C32.6328 30.4 31.2 31.8328 31.2 33.6C31.2 35.3672 32.6328 36.8 34.4 36.8C36.1671 36.8 37.6 35.3672 37.6 33.6C37.6 31.8328 36.1671 30.4 34.4 30.4ZM34.4 35.2C33.5164 35.2 32.8 34.4836 32.8 33.6C32.8 32.7164 33.5164 32 34.4 32C35.2835 32 36 32.7164 36 33.6C36 34.4836 35.2835 35.2 34.4 35.2Z" fill="#DE1832"/>
<path d="M27.2 38.4C25.4328 38.4 24 39.8328 24 41.6C24 43.3672 25.4328 44.8 27.2 44.8C28.9672 44.8 30.4 43.3672 30.4 41.6C30.4 39.8328 28.9672 38.4 27.2 38.4ZM27.2 43.2C26.3164 43.2 25.6 42.4836 25.6 41.6C25.6 40.7164 26.3164 40 27.2 40C28.0836 40 28.8 40.7164 28.8 41.6C28.8 42.4836 28.0836 43.2 27.2 43.2Z" fill="#DE1832"/>
<path d="M34.4 38.4C32.6328 38.4 31.2 39.8328 31.2 41.6C31.2 43.3672 32.6328 44.8 34.4 44.8C36.1671 44.8 37.6 43.3672 37.6 41.6C37.6 39.8328 36.1671 38.4 34.4 38.4ZM34.4 43.2C33.5164 43.2 32.8 42.4836 32.8 41.6C32.8 40.7164 33.5164 40 34.4 40C35.2835 40 36 40.7164 36 41.6C36 42.4836 35.2835 43.2 34.4 43.2Z" fill="#DE1832"/>
<path d="M41.5999 30.4C39.8327 30.4 38.3999 31.8328 38.3999 33.6V41.6C38.3999 43.3672 39.8327 44.8 41.5999 44.8C43.3671 44.8 44.7999 43.3672 44.7999 41.6V33.6C44.7999 31.8328 43.3671 30.4 41.5999 30.4ZM43.1999 41.6C43.1999 42.4836 42.4835 43.2 41.5999 43.2C40.7163 43.2 39.9999 42.4836 39.9999 41.6V33.6C39.9999 32.7164 40.7163 32 41.5999 32C42.4835 32 43.1999 32.7164 43.1999 33.6V41.6Z" fill="#DE1832"/>
<path d="M8.23433 14.1657C8.54683 14.4778 9.05308 14.4778 9.36558 14.1657L16.5656 6.96566C16.8687 6.65159 16.8644 6.15276 16.5558 5.84417C16.2472 5.53558 15.7484 5.53128 15.4343 5.83441L8.23433 13.0344C7.92222 13.3469 7.92222 13.8532 8.23433 14.1657Z" fill="#DE1832"/>
<path d="M12.8 12.8C12.8 14.1254 13.8747 15.2 15.2 15.2C16.5254 15.2 17.6 14.1254 17.6 12.8C17.6 11.4746 16.5254 10.4 15.2 10.4C13.8747 10.4 12.8 11.4746 12.8 12.8ZM16 12.8C16 13.2418 15.6418 13.6 15.2 13.6C14.7583 13.6 14.4 13.2418 14.4 12.8C14.4 12.3582 14.7583 12 15.2 12C15.6418 12 16 12.3582 16 12.8Z" fill="#DE1832"/>
<path d="M9.59995 9.60005C10.9253 9.60005 12 8.52544 12 7.20005C12 5.87466 10.9253 4.80005 9.59995 4.80005C8.27456 4.80005 7.19995 5.87466 7.19995 7.20005C7.19995 8.52544 8.27456 9.60005 9.59995 9.60005ZM9.59995 6.40005C10.0417 6.40005 10.4 6.75825 10.4 7.20005C10.4 7.64185 10.0417 8.00005 9.59995 8.00005C9.15815 8.00005 8.79995 7.64185 8.79995 7.20005C8.79995 6.75825 9.15815 6.40005 9.59995 6.40005Z" fill="#DE1832"/>
<path d="M5.60005 21.6H15.2C15.6418 21.6 16 21.2418 16 20.8C16 20.3582 15.6418 20 15.2 20H5.60005C5.15825 20 4.80005 20.3582 4.80005 20.8C4.80005 21.2418 5.15825 21.6 5.60005 21.6Z" fill="#DE1832"/>
<path d="M16.8 23.2H5.60005C5.15825 23.2 4.80005 23.5582 4.80005 24C4.80005 24.4417 5.15825 24.8 5.60005 24.8H16.8C17.2418 24.8 17.6 24.4417 17.6 24C17.6 23.5582 17.2418 23.2 16.8 23.2Z" fill="#DE1832"/>
<path d="M8.80005 26.4H5.60005C5.15825 26.4 4.80005 26.7582 4.80005 27.2C4.80005 27.6418 5.15825 28 5.60005 28H8.80005C9.24185 28 9.60005 27.6418 9.60005 27.2C9.60005 26.7582 9.24185 26.4 8.80005 26.4Z" fill="#DE1832"/>
<path d="M16.8 26.4H12C11.5582 26.4 11.2 26.7582 11.2 27.2C11.2 27.6418 11.5582 28 12 28H16.8C17.2417 28 17.6 27.6418 17.6 27.2C17.6 26.7582 17.2417 26.4 16.8 26.4Z" fill="#DE1832"/>
</svg>
